# Alias OBJ Model File
# Exported from SketchUp, (c) 2000-2012 Trimble Navigation Limited
# File units = millimeters

mtllib Left.mtl

g Mesh1 Model

usemtl FrontColor
v 0 0 75
vt 0 -2.95276
vn 0 -1 -0
v 0 0 20
vt 0 -0.787402
v 128 0 20
vt -5.03937 -0.787402
v 128 0 75
vt -5.03937 -2.95276
f 1/1/1 2/2/1 3/3/1 4/4/1 

vt 0.787402 0
vn -1 0 -0
vt 2.95276 0
v 0 5 75
vt 2.95276 0.19685
v 0 5 20
vt 0.787402 0.19685
f 2/5/2 1/6/2 5/7/2 6/8/2 

vt 0 0
vn 0 0 1
vt 5.03937 0
v 128 5 75
vt 5.03937 0.19685
vt 0 0.19685
f 1/9/3 4/10/3 7/11/3 5/12/3 

v 128 5 20
vt -0.787402 0.19685
vn 1 0 -0
vt -2.95276 0.19685
vt -2.95276 0
vt -0.787402 0
f 8/13/4 7/14/4 4/15/4 3/16/4 

vt 5.03937 -0.787402
vn 0 1 -0
v 108 5 24.5
vt 4.25197 -0.964567
vt 5.03937 -2.95276
f 8/17/5 9/18/5 7/19/5

v 106 5 24.5
vt 4.17323 -0.964567
f 8/17/5 10/20/5 9/18/5

v 83 5 24.5
vt 3.26772 -0.964567
f 8/17/5 11/21/5 10/20/5

v 81 5 24.5
vt 3.18898 -0.964567
f 8/17/5 12/22/5 11/21/5

v 41 5 24.5
vt 1.61417 -0.964567
f 8/17/5 13/23/5 12/22/5

v 39 5 24.5
vt 1.53543 -0.964567
f 8/17/5 14/24/5 13/23/5

v 16 5 24.5
vt 0.629921 -0.964567
f 8/17/5 15/25/5 14/24/5

v 14 5 24.5
vt 0.551181 -0.964567
f 8/17/5 16/26/5 15/25/5

f 6/2/5 16/26/5 8/17/5

v 14 5 30.5
vt 0.551181 -1.20079
f 16/26/5 6/2/5 17/27/5

v 14 5 70.5
vt 0.551181 -2.77559
f 17/27/5 6/2/5 18/28/5

f 5/1/5 18/28/5 6/2/5

f 18/28/5 5/1/5 7/19/5

v 16 5 70.5
vt 0.629921 -2.77559
f 18/28/5 7/19/5 19/29/5

v 39 5 70.5
vt 1.53543 -2.77559
f 19/29/5 7/19/5 20/30/5

v 41 5 70.5
vt 1.61417 -2.77559
f 20/30/5 7/19/5 21/31/5

v 81 5 70.5
vt 3.18898 -2.77559
f 21/31/5 7/19/5 22/32/5

v 83 5 70.5
vt 3.26772 -2.77559
f 22/32/5 7/19/5 23/33/5

v 106 5 70.5
vt 4.17323 -2.77559
f 23/33/5 7/19/5 24/34/5

v 108 5 70.5
vt 4.25197 -2.77559
f 24/34/5 7/19/5 25/35/5

v 108 5 64.5
vt 4.25197 -2.53937
f 25/35/5 7/19/5 26/36/5

v 108 5 30.5
vt 4.25197 -1.20079
f 26/36/5 7/19/5 27/37/5

f 27/37/5 7/19/5 9/18/5

vt -1.20079 0.19685
vt -0.964567 0.19685
v 108 8 24.5
vt -0.964567 0.314961
v 108 8 30.5
vt -1.20079 0.314961
f 27/38/4 9/39/4 28/40/4 29/41/4 

vt -4.25197 0.19685
vn 0 0 -1
vt -4.17323 0.19685
v 106 8 24.5
vt -4.17323 0.314961
vt -4.25197 0.314961
f 9/42/6 10/43/6 30/44/6 28/45/6 

vt 0.964567 0.19685
v 106 5 30.5
vt 1.20079 0.19685
v 106 8 30.5
vt 1.20079 0.314961
vt 0.964567 0.314961
f 10/46/2 31/47/2 32/48/2 30/49/2 

v 106 5 64.5
vt 4.17323 -2.53937
vt 4.17323 -1.20079
f 10/20/5 33/50/5 31/51/5

f 10/20/5 24/34/5 33/50/5

f 10/20/5 11/21/5 24/34/5

v 83 5 30.5
vt 3.26772 -1.20079
f 34/52/5 24/34/5 11/21/5

v 83 5 64.5
vt 3.26772 -2.53937
f 35/53/5 24/34/5 34/52/5

f 23/33/5 24/34/5 35/53/5

vt -2.77559 0.19685
vt -2.53937 0.19685
v 83 8 64.5
vt -2.53937 0.314961
v 83 8 70.5
vt -2.77559 0.314961
f 23/54/4 35/55/4 36/56/4 37/57/4 

vt -3.26772 0.19685
v 81 5 64.5
vt -3.18898 0.19685
v 81 8 64.5
vt -3.18898 0.314961
vt -3.26772 0.314961
f 35/58/6 38/59/6 39/60/6 36/61/6 

v 81 5 30.5
vt 3.18898 -1.20079
vt 3.18898 -2.53937
f 35/53/5 40/62/5 38/63/5

f 40/62/5 35/53/5 34/52/5

vt 3.18898 0.19685
vt 3.26772 0.19685
v 83 8 30.5
vt 3.26772 0.314961
v 81 8 30.5
vt 3.18898 0.314961
f 40/64/3 34/65/3 41/66/3 42/67/3 

v 83 8 24.5
f 34/38/4 11/39/4 43/40/4 41/41/4 

v 81 8 24.5
f 11/58/6 12/59/6 44/60/6 43/61/6 

f 12/46/2 40/47/2 42/48/2 44/49/2 

f 12/22/5 38/63/5 40/62/5

f 12/22/5 22/32/5 38/63/5

f 12/22/5 13/23/5 22/32/5

v 41 5 30.5
vt 1.61417 -1.20079
f 45/68/5 22/32/5 13/23/5

v 41 5 64.5
vt 1.61417 -2.53937
f 46/69/5 22/32/5 45/68/5

f 21/31/5 22/32/5 46/69/5

v 41 8 64.5
v 41 8 70.5
f 21/54/4 46/55/4 47/56/4 48/57/4 

vt -1.61417 0.19685
v 39 5 64.5
vt -1.53543 0.19685
v 39 8 64.5
vt -1.53543 0.314961
vt -1.61417 0.314961
f 46/70/6 49/71/6 50/72/6 47/73/6 

v 39 5 30.5
vt 1.53543 -1.20079
vt 1.53543 -2.53937
f 46/69/5 51/74/5 49/75/5

f 51/74/5 46/69/5 45/68/5

vt 1.53543 0.19685
vt 1.61417 0.19685
v 41 8 30.5
vt 1.61417 0.314961
v 39 8 30.5
vt 1.53543 0.314961
f 51/76/3 45/77/3 52/78/3 53/79/3 

v 41 8 24.5
f 45/38/4 13/39/4 54/40/4 52/41/4 

v 39 8 24.5
f 13/70/6 14/71/6 55/72/6 54/73/6 

f 14/46/2 51/47/2 53/48/2 55/49/2 

f 14/24/5 49/75/5 51/74/5

f 14/24/5 20/30/5 49/75/5

f 14/24/5 15/25/5 20/30/5

v 16 5 64.5
vt 0.629921 -2.53937
f 56/80/5 20/30/5 15/25/5

f 19/29/5 20/30/5 56/80/5

v 16 8 64.5
v 16 8 70.5
f 19/54/4 56/55/4 57/56/4 58/57/4 

vt -0.629921 0.19685
v 14 5 64.5
vt -0.551181 0.19685
v 14 8 64.5
vt -0.551181 0.314961
vt -0.629921 0.314961
f 56/81/6 59/82/6 60/83/6 57/84/6 

vt 0.551181 -2.53937
f 56/80/5 17/27/5 59/85/5

v 16 5 30.5
vt 0.629921 -1.20079
f 17/27/5 56/80/5 61/86/5

f 61/86/5 56/80/5 15/25/5

vn 1 0 4.69994e-16
v 16 8 24.5
v 16 8 30.5
f 61/38/7 15/39/7 62/40/7 63/41/7 

v 14 8 24.5
f 15/81/6 16/82/6 64/83/6 62/84/6 

vn -1 0 -4.69994e-16
v 14 8 30.5
f 16/46/8 17/47/8 65/48/8 64/49/8 

vt 0.551181 0.19685
vt 0.629921 0.19685
vt 0.629921 0.314961
vt 0.551181 0.314961
f 17/87/3 61/88/3 63/89/3 65/90/3 

f 65/27/5 63/86/5 62/25/5 64/26/5 

f 17/27/5 18/28/5 59/85/5

vt 2.53937 0.19685
vt 2.77559 0.19685
v 14 8 70.5
vt 2.77559 0.314961
vt 2.53937 0.314961
f 59/91/2 18/92/2 66/93/2 60/94/2 

f 18/87/3 19/88/3 58/89/3 66/90/3 

f 58/29/5 57/80/5 60/85/5 66/28/5 

v 39 8 70.5
f 49/91/2 20/92/2 67/93/2 50/94/2 

f 20/76/3 21/77/3 48/78/3 67/79/3 

f 47/69/5 50/75/5 67/30/5 48/31/5 

f 52/68/5 54/23/5 55/24/5 53/74/5 

v 81 8 70.5
f 38/91/2 22/92/2 68/93/2 39/94/2 

f 22/64/3 23/65/3 37/66/3 68/67/3 

f 37/33/5 36/53/5 39/63/5 68/32/5 

f 43/21/5 44/22/5 42/62/5 41/52/5 

v 106 8 70.5
v 106 8 64.5
f 33/91/2 24/92/2 69/93/2 70/94/2 

vt 4.17323 0.19685
vt 4.25197 0.19685
v 108 8 70.5
vt 4.25197 0.314961
vt 4.17323 0.314961
f 24/95/3 25/96/3 71/97/3 69/98/3 

v 108 8 64.5
f 25/54/4 26/55/4 72/56/4 71/57/4 

f 26/42/6 33/43/6 70/44/6 72/45/6 

f 26/36/5 31/51/5 33/50/5

f 31/51/5 26/36/5 27/37/5

f 31/95/3 27/96/3 29/97/3 32/98/3 

f 29/37/5 28/18/5 30/20/5 32/51/5 

f 69/34/5 71/35/5 72/36/5 70/50/5 

vt -5.03937 0.19685
vt -5.03937 0
f 8/99/6 3/100/6 2/9/6 6/12/6 

