# Alias OBJ Model File
# Exported from SketchUp, (c) 2000-2012 Trimble Navigation Limited
# File units = millimeters

mtllib Platform.mtl

g Mesh1 Model

usemtl FrontColor
v 0 0 75
vt 0 -2.95276
vn 0 -1 -0
v 0 0 20
vt 0 -0.787402
v 311 0 20
vt -12.2441 -0.787402
v 311 0 75
vt -12.2441 -2.95276
f 1/1/1 2/2/1 3/3/1 4/4/1 

vt 0.787402 0
vn -1 0 -0
vt 2.95276 0
v 0 5 75
vt 2.95276 0.19685
v 0 5 20
vt 0.787402 0.19685
f 2/5/2 1/6/2 5/7/2 6/8/2 

vt -1.00293e-16 2.3601e-15
vn 3.39659e-17 -7.99287e-16 1
vt 12.2441 2.3601e-15
v 311 5 75
vt 12.2441 0.19685
v 128 5 75
vt 5.03937 0.19685
vt -1.00293e-16 0.19685
f 1/9/3 4/10/3 7/11/3 8/12/3 5/13/3 

vt -2.95276 0
vn 1 0 -0
vt -0.787402 0
v 311 5 20
vt -0.787402 0.19685
vt -2.95276 0.19685
f 4/14/4 3/15/4 9/16/4 7/17/4 

vt -12.2441 -4.62596e-16
vn -1.70936e-17 -5.87497e-16 -1
vt 1.34595e-17 -4.62596e-16
vt 1.34595e-17 0.19685
v 128 5 20
vt -5.03937 0.19685
vt -12.2441 0.19685
f 3/18/5 2/19/5 6/20/5 10/21/5 9/22/5 

vn 0 1 -0
v 14 5 24.5
vt 0.551181 -0.964567
vt 5.03937 -0.787402
f 6/2/6 11/23/6 10/24/6

v 14 5 30.5
vt 0.551181 -1.20079
f 11/23/6 6/2/6 12/25/6

v 14 5 70.5
vt 0.551181 -2.77559
f 12/25/6 6/2/6 13/26/6

f 5/1/6 13/26/6 6/2/6

vt 5.03937 -2.95276
f 13/26/6 5/1/6 8/27/6

v 16 5 70.5
vt 0.629921 -2.77559
f 13/26/6 8/27/6 14/28/6

v 39 5 70.5
vt 1.53543 -2.77559
f 14/28/6 8/27/6 15/29/6

v 41 5 70.5
vt 1.61417 -2.77559
f 15/29/6 8/27/6 16/30/6

v 81 5 70.5
vt 3.18898 -2.77559
f 16/30/6 8/27/6 17/31/6

v 83 5 70.5
vt 3.26772 -2.77559
f 17/31/6 8/27/6 18/32/6

v 106 5 70.5
vt 4.17323 -2.77559
f 18/32/6 8/27/6 19/33/6

v 108 5 70.5
vt 4.25197 -2.77559
f 19/33/6 8/27/6 20/34/6

v 108 5 64.5
vt 4.25197 -2.53937
f 20/34/6 8/27/6 21/35/6

v 108 5 30.5
vt 4.25197 -1.20079
f 21/35/6 8/27/6 22/36/6

v 108 5 24.5
vt 4.25197 -0.964567
f 22/36/6 8/27/6 23/37/6

f 10/24/6 23/37/6 8/27/6

v 106 5 24.5
vt 4.17323 -0.964567
f 10/24/6 24/38/6 23/37/6

v 83 5 24.5
vt 3.26772 -0.964567
f 10/24/6 25/39/6 24/38/6

v 81 5 24.5
vt 3.18898 -0.964567
f 10/24/6 26/40/6 25/39/6

v 41 5 24.5
vt 1.61417 -0.964567
f 10/24/6 27/41/6 26/40/6

v 39 5 24.5
vt 1.53543 -0.964567
f 10/24/6 28/42/6 27/41/6

v 16 5 24.5
vt 0.629921 -0.964567
f 10/24/6 29/43/6 28/42/6

f 10/24/6 11/23/6 29/43/6

vt -0.629921 0.19685
vn 0 0 -1
vt -0.551181 0.19685
v 14 8 24.5
vt -0.551181 0.314961
v 16 8 24.5
vt -0.629921 0.314961
f 29/44/7 11/45/7 30/46/7 31/47/7 

vt 0.964567 0.19685
vn -1 0 -4.69994e-16
vt 1.20079 0.19685
v 14 8 30.5
vt 1.20079 0.314961
vt 0.964567 0.314961
f 11/48/8 12/49/8 32/50/8 30/51/8 

vt 0.551181 0.19685
vn 0 0 1
v 16 5 30.5
vt 0.629921 0.19685
v 16 8 30.5
vt 0.629921 0.314961
vt 0.551181 0.314961
f 12/52/9 33/53/9 34/54/9 32/55/9 

v 16 5 64.5
vt 0.629921 -2.53937
vt 0.629921 -1.20079
f 12/25/6 35/56/6 33/57/6

v 14 5 64.5
vt 0.551181 -2.53937
f 35/56/6 12/25/6 36/58/6

f 12/25/6 13/26/6 36/58/6

vt 2.53937 0.19685
vt 2.77559 0.19685
v 14 8 70.5
vt 2.77559 0.314961
v 14 8 64.5
vt 2.53937 0.314961
f 36/59/2 13/60/2 37/61/2 38/62/2 

v 16 8 70.5
f 13/52/9 14/53/9 39/54/9 37/55/9 

vt -2.77559 0.19685
vt -2.53937 0.19685
v 16 8 64.5
vt -2.53937 0.314961
vt -2.77559 0.314961
f 14/63/4 35/64/4 40/65/4 39/66/4 

f 14/28/6 15/29/6 35/56/6

f 35/56/6 15/29/6 29/43/6

f 28/42/6 29/43/6 15/29/6

v 39 5 64.5
vt 1.53543 -2.53937
f 28/42/6 15/29/6 41/67/6

v 39 8 70.5
v 39 8 64.5
f 41/59/2 15/60/2 42/61/2 43/62/2 

vt 1.53543 0.19685
vt 1.61417 0.19685
v 41 8 70.5
vt 1.61417 0.314961
vt 1.53543 0.314961
f 15/68/9 16/69/9 44/70/9 42/71/9 

v 41 5 64.5
v 41 8 64.5
f 16/63/4 45/64/4 46/65/4 44/66/4 

vt 1.61417 -2.53937
f 16/30/6 17/31/6 45/72/6

v 41 5 30.5
vt 1.61417 -1.20079
f 45/72/6 17/31/6 47/73/6

f 47/73/6 17/31/6 27/41/6

f 26/40/6 27/41/6 17/31/6

v 81 5 64.5
vt 3.18898 -2.53937
f 26/40/6 17/31/6 48/74/6

v 81 8 70.5
v 81 8 64.5
f 48/59/2 17/60/2 49/61/2 50/62/2 

vt 3.18898 0.19685
vt 3.26772 0.19685
v 83 8 70.5
vt 3.26772 0.314961
vt 3.18898 0.314961
f 17/75/9 18/76/9 51/77/9 49/78/9 

v 83 5 64.5
v 83 8 64.5
f 18/63/4 52/64/4 53/65/4 51/66/4 

vt 3.26772 -2.53937
f 18/32/6 19/33/6 52/79/6

v 83 5 30.5
vt 3.26772 -1.20079
f 52/79/6 19/33/6 54/80/6

f 54/80/6 19/33/6 25/39/6

f 24/38/6 25/39/6 19/33/6

v 106 5 64.5
vt 4.17323 -2.53937
f 24/38/6 19/33/6 55/81/6

v 106 8 70.5
v 106 8 64.5
f 55/59/2 19/60/2 56/61/2 57/62/2 

vt 4.17323 0.19685
vt 4.25197 0.19685
v 108 8 70.5
vt 4.25197 0.314961
vt 4.17323 0.314961
f 19/82/9 20/83/9 58/84/9 56/85/9 

v 108 8 64.5
f 20/63/4 21/64/4 59/65/4 58/66/4 

vt -4.25197 0.19685
vt -4.17323 0.19685
vt -4.17323 0.314961
vt -4.25197 0.314961
f 21/86/7 55/87/7 57/88/7 59/89/7 

v 106 5 30.5
vt 4.17323 -1.20079
f 21/35/6 60/90/6 55/81/6

f 60/90/6 21/35/6 22/36/6

v 108 8 30.5
v 106 8 30.5
f 60/82/9 22/83/9 61/84/9 62/85/9 

vt -1.20079 0.19685
vt -0.964567 0.19685
v 108 8 24.5
vt -0.964567 0.314961
vt -1.20079 0.314961
f 22/91/4 23/92/4 63/93/4 61/94/4 

v 106 8 24.5
f 23/86/7 24/87/7 64/88/7 63/89/7 

f 24/48/2 60/49/2 62/50/2 64/51/2 

f 24/38/6 55/81/6 60/90/6

f 61/36/6 63/37/6 64/38/6 62/90/6 

f 56/33/6 58/34/6 59/35/6 57/81/6 

v 83 8 24.5
v 83 8 30.5
f 54/91/4 25/92/4 65/93/4 66/94/4 

vt -3.26772 0.19685
vt -3.18898 0.19685
v 81 8 24.5
vt -3.18898 0.314961
vt -3.26772 0.314961
f 25/95/7 26/96/7 67/97/7 65/98/7 

v 81 5 30.5
v 81 8 30.5
f 26/48/2 68/49/2 69/50/2 67/51/2 

vt 3.18898 -1.20079
f 26/40/6 48/74/6 68/99/6

f 52/79/6 68/99/6 48/74/6

f 68/99/6 52/79/6 54/80/6

f 68/75/9 54/76/9 66/77/9 69/78/9 

f 65/39/6 67/40/6 69/99/6 66/80/6 

f 52/95/7 48/96/7 50/97/7 53/98/7 

f 51/32/6 53/79/6 50/74/6 49/31/6 

v 41 8 24.5
v 41 8 30.5
f 47/91/4 27/92/4 70/93/4 71/94/4 

vt -1.61417 0.19685
vt -1.53543 0.19685
v 39 8 24.5
vt -1.53543 0.314961
vt -1.61417 0.314961
f 27/100/7 28/101/7 72/102/7 70/103/7 

v 39 5 30.5
v 39 8 30.5
f 28/48/2 73/49/2 74/50/2 72/51/2 

vt 1.53543 -1.20079
f 28/42/6 41/67/6 73/104/6

f 45/72/6 73/104/6 41/67/6

f 73/104/6 45/72/6 47/73/6

f 73/68/9 47/69/9 71/70/9 74/71/9 

f 71/73/6 70/41/6 72/42/6 74/104/6 

f 45/100/7 41/101/7 43/102/7 46/103/7 

f 46/72/6 43/67/6 42/29/6 44/30/6 

f 33/57/6 35/56/6 29/43/6

vn 1 0 4.69994e-16
f 33/91/10 29/92/10 31/93/10 34/94/10 

f 32/25/6 34/57/6 31/43/6 30/23/6 

f 35/44/7 36/45/7 38/46/7 40/47/7 

f 39/28/6 40/56/6 38/58/6 37/26/6 

v 153 5 71
vt 6.02362 -2.79528
f 8/27/6 75/105/6 10/24/6

vt 12.2441 -2.95276
f 75/105/6 8/27/6 7/106/6

v 159 5 71
vt 6.25984 -2.79528
f 75/105/6 7/106/6 76/107/6

v 159 5 69
vt 6.25984 -2.71654
f 76/107/6 7/106/6 77/108/6

v 219 5 71
vt 8.62205 -2.79528
f 77/108/6 7/106/6 78/109/6

v 225 5 71
vt 8.85827 -2.79528
f 78/109/6 7/106/6 79/110/6

v 225 5 69
vt 8.85827 -2.71654
f 79/110/6 7/106/6 80/111/6

v 270 5 70.5
vt 10.6299 -2.77559
f 80/111/6 7/106/6 81/112/6

v 272 5 70.5
vt 10.7087 -2.77559
f 81/112/6 7/106/6 82/113/6

v 272 5 64.5
vt 10.7087 -2.53937
f 82/113/6 7/106/6 83/114/6

v 295 5 70.5
vt 11.6142 -2.77559
f 83/114/6 7/106/6 84/115/6

v 297 5 70.5
vt 11.6929 -2.77559
f 84/115/6 7/106/6 85/116/6

v 297 5 64.5
vt 11.6929 -2.53937
f 85/116/6 7/106/6 86/117/6

v 297 5 30.5
vt 11.6929 -1.20079
f 86/117/6 7/106/6 87/118/6

v 297 5 24.5
vt 11.6929 -0.964567
f 87/118/6 7/106/6 88/119/6

vt 12.2441 -0.787402
f 9/120/6 88/119/6 7/106/6

v 295 5 24.5
vt 11.6142 -0.964567
f 9/120/6 89/121/6 88/119/6

v 272 5 24.5
vt 10.7087 -0.964567
f 9/120/6 90/122/6 89/121/6

v 270 5 24.5
vt 10.6299 -0.964567
f 9/120/6 91/123/6 90/122/6

f 10/24/6 91/123/6 9/120/6

v 153 5 53
vt 6.02362 -2.08661
f 91/123/6 10/24/6 92/124/6

f 92/124/6 10/24/6 75/105/6

v 153 5 69
vt 6.02362 -2.71654
f 92/124/6 75/105/6 93/125/6

vt 2.71654 0.19685
vt 2.79528 0.19685
v 153 8 71
vt 2.79528 0.314961
v 153 8 69
vt 2.71654 0.314961
f 93/126/2 75/127/2 94/128/2 95/129/2 

vt 6.02362 0.19685
vt 6.25984 0.19685
v 159 8 71
vt 6.25984 0.314961
vt 6.02362 0.314961
f 75/130/9 76/131/9 96/132/9 94/133/9 

vt -2.79528 0.19685
vt -2.71654 0.19685
v 159 8 69
vt -2.71654 0.314961
vt -2.79528 0.314961
f 76/134/4 77/135/4 97/136/4 96/137/4 

vt -6.25984 0.19685
vt -6.02362 0.19685
vt -6.02362 0.314961
vt -6.25984 0.314961
f 77/138/7 93/139/7 95/140/7 97/141/7 

v 153 5 55
vt 6.02362 -2.16535
f 77/108/6 98/142/6 93/125/6

v 159 5 55
vt 6.25984 -2.16535
f 98/142/6 77/108/6 99/143/6

f 77/108/6 78/109/6 99/143/6

v 159 5 53
vt 6.25984 -2.08661
f 99/143/6 78/109/6 100/144/6

v 219 5 53
vt 8.62205 -2.08661
f 101/145/6 100/144/6 78/109/6

f 91/123/6 100/144/6 101/145/6

f 91/123/6 92/124/6 100/144/6

v 153 8 53
v 159 8 53
f 100/138/7 92/139/7 102/140/7 103/141/7 

vt 2.08661 0.19685
vt 2.16535 0.19685
v 153 8 55
vt 2.16535 0.314961
vt 2.08661 0.314961
f 92/146/2 98/147/2 104/148/2 102/149/2 

f 92/124/6 93/125/6 98/142/6

v 159 8 55
f 98/130/9 99/131/9 105/132/9 104/133/9 

vt -2.16535 0.19685
vt -2.08661 0.19685
vt -2.08661 0.314961
vt -2.16535 0.314961
f 99/150/4 100/151/4 103/152/4 105/153/4 

f 105/143/6 103/144/6 102/124/6 104/142/6 

v 225 5 53
vt 8.85827 -2.08661
f 91/123/6 101/145/6 106/154/6

vt -8.85827 0.19685
vt -8.62205 0.19685
v 219 8 53
vt -8.62205 0.314961
v 225 8 53
vt -8.85827 0.314961
f 106/155/7 101/156/7 107/157/7 108/158/7 

v 219 5 55
v 219 8 55
f 101/146/2 109/147/2 110/148/2 107/149/2 

v 219 5 69
vt 8.62205 -2.71654
vt 8.62205 -2.16535
f 101/145/6 111/159/6 109/160/6

f 101/145/6 78/109/6 111/159/6

v 219 8 71
v 219 8 69
f 111/126/2 78/127/2 112/128/2 113/129/2 

vt 8.62205 0.19685
vn 3.75996e-15 0 1
vt 8.85827 0.19685
v 225 8 71
vt 8.85827 0.314961
vt 8.62205 0.314961
f 78/161/11 79/162/11 114/163/11 112/164/11 

v 225 8 69
f 79/134/4 80/135/4 115/136/4 114/137/4 

vn -3.75996e-15 0 -1
f 80/155/12 111/156/12 113/157/12 115/158/12 

f 80/111/6 109/160/6 111/159/6

v 225 5 55
vt 8.85827 -2.16535
f 109/160/6 80/111/6 116/165/6

f 80/111/6 81/112/6 116/165/6

f 116/165/6 81/112/6 106/154/6

v 270 5 30.5
vt 10.6299 -1.20079
f 117/166/6 106/154/6 81/112/6

f 91/123/6 106/154/6 117/166/6

vn -1 0 -7.51991e-15
v 270 8 30.5
v 270 8 24.5
f 91/48/13 117/49/13 118/50/13 119/51/13 

vt 10.6299 0.19685
v 272 5 30.5
vt 10.7087 0.19685
v 272 8 30.5
vt 10.7087 0.314961
vt 10.6299 0.314961
f 117/167/9 120/168/9 121/169/9 118/170/9 

vt 10.7087 -1.20079
f 117/166/6 83/114/6 120/171/6

v 270 5 64.5
vt 10.6299 -2.53937
f 83/114/6 117/166/6 122/172/6

f 117/166/6 81/112/6 122/172/6

v 270 8 70.5
v 270 8 64.5
f 122/59/2 81/60/2 123/61/2 124/62/2 

v 272 8 70.5
f 81/167/9 82/168/9 125/169/9 123/170/9 

v 272 8 64.5
f 82/63/4 83/64/4 126/65/4 125/66/4 

vt -10.7087 0.19685
vt -10.6299 0.19685
vt -10.6299 0.314961
vt -10.7087 0.314961
f 83/173/7 122/174/7 124/175/7 126/176/7 

f 125/113/6 126/114/6 124/172/6 123/112/6 

f 120/171/6 83/114/6 90/122/6

f 83/114/6 84/115/6 90/122/6

f 89/121/6 90/122/6 84/115/6

v 295 5 64.5
vt 11.6142 -2.53937
f 89/121/6 84/115/6 127/177/6

v 295 8 70.5
v 295 8 64.5
f 127/59/2 84/60/2 128/61/2 129/62/2 

vt 11.6142 0.19685
vt 11.6929 0.19685
v 297 8 70.5
vt 11.6929 0.314961
vt 11.6142 0.314961
f 84/178/9 85/179/9 130/180/9 128/181/9 

v 297 8 64.5
f 85/63/4 86/64/4 131/65/4 130/66/4 

vt -11.6929 0.19685
vt -11.6142 0.19685
vt -11.6142 0.314961
vt -11.6929 0.314961
f 86/182/7 127/183/7 129/184/7 131/185/7 

v 295 5 30.5
vt 11.6142 -1.20079
f 86/117/6 132/186/6 127/177/6

f 132/186/6 86/117/6 87/118/6

v 297 8 30.5
v 295 8 30.5
f 132/178/9 87/179/9 133/180/9 134/181/9 

v 297 8 24.5
f 87/91/4 88/92/4 135/93/4 133/94/4 

v 295 8 24.5
f 88/182/7 89/183/7 136/184/7 135/185/7 

f 89/48/2 132/49/2 134/50/2 136/51/2 

f 89/121/6 127/177/6 132/186/6

f 133/118/6 135/119/6 136/121/6 134/186/6 

f 128/115/6 130/116/6 131/117/6 129/177/6 

vn 1 0 7.51991e-15
v 272 8 24.5
f 120/91/14 90/92/14 137/93/14 121/94/14 

f 90/173/7 91/174/7 119/175/7 137/176/7 

f 137/122/6 119/123/6 118/166/6 121/171/6 

v 225 8 55
f 116/150/4 106/151/4 108/152/4 138/153/4 

f 138/165/6 108/154/6 107/145/6 110/160/6 

f 109/161/9 116/162/9 138/163/9 110/164/9 

f 115/111/6 113/159/6 112/109/6 114/110/6 

f 97/108/6 95/125/6 94/105/6 96/107/6 

